<?xml version="1.0" standalone="no"?>
<!DOCTYPE svg PUBLIC "-//W3C//DTD SVG 20010904//EN"
 "http://www.w3.org/TR/2001/REC-SVG-20010904/DTD/svg10.dtd">
<svg version="1.0" xmlns="http://www.w3.org/2000/svg"
 width="300.000000pt" height="159.000000pt" viewBox="0 0 300.000000 159.000000"
 preserveAspectRatio="xMidYMid meet">
<metadata>
Created by potrace 1.10, written by Peter Selinger 2001-2011
</metadata>
<g transform="translate(0.000000,159.000000) scale(0.100000,-0.100000)"
fill="#000000" stroke="none">
<path d="M1626 1531 c-3 -5 -22 -12 -43 -16 -23 -4 -32 -9 -24 -14 9 -6 8 -10
-6 -16 -10 -5 -22 -7 -27 -6 -14 3 -36 -21 -29 -32 4 -6 0 -8 -10 -4 -12 4
-14 2 -10 -10 4 -11 3 -14 -6 -9 -13 8 -54 -22 -46 -34 2 -4 -9 -20 -25 -35
-17 -16 -30 -25 -30 -20 0 4 -9 0 -19 -9 -11 -10 -17 -25 -14 -34 4 -9 2 -13
-4 -9 -7 5 -10 -1 -7 -15 2 -13 1 -17 -2 -10 -9 19 -40 -27 -36 -52 2 -10 -1
-15 -6 -12 -5 3 -9 -2 -8 -11 0 -10 -6 -18 -14 -18 -10 0 -14 -9 -13 -23 2
-13 -1 -21 -6 -18 -5 4 -7 -4 -4 -16 3 -16 2 -19 -4 -10 -7 9 -12 6 -21 -13
-14 -31 -15 -46 -2 -25 9 13 10 13 10 0 1 -8 18 20 40 62 77 153 140 231 255
321 6 4 21 16 34 27 13 11 28 20 33 20 5 0 7 4 4 9 -3 5 5 11 19 13 13 3 26 1
27 -3 2 -5 10 -4 18 1 12 8 12 10 -5 11 -20 0 -20 0 0 9 16 7 17 9 3 9 -9 1
-19 -3 -22 -8z"/>
<path d="M1671 1513 c0 -11 3 -13 6 -5 5 14 24 17 21 3 -2 -5 26 -28 61 -51
90 -61 179 -146 200 -193 17 -37 18 -38 23 -15 5 27 -14 62 -27 50 -5 -4 -6 0
-2 9 3 11 -10 31 -41 60 -26 24 -38 34 -28 22 11 -13 15 -23 9 -23 -11 0 -42
32 -40 41 4 14 -84 78 -100 72 -11 -4 -14 -2 -9 5 4 7 -6 17 -23 27 -39 20
-51 19 -50 -2z"/>
<path d="M840 1363 c67 -3 100 -7 91 -13 -12 -7 -8 -10 15 -16 16 -3 34 -11
39 -18 6 -6 36 -31 69 -56 32 -24 73 -64 91 -87 25 -33 34 -39 39 -28 3 9 2
13 -4 10 -9 -6 -14 8 -11 28 1 5 -4 5 -10 1 -8 -5 -10 -2 -6 8 3 10 -5 25 -20
39 -15 13 -23 18 -18 10 5 -9 3 -12 -6 -9 -8 3 -13 10 -12 16 2 6 -16 26 -39
44 -23 18 -39 27 -35 21 12 -20 -8 -15 -26 5 -10 10 -14 22 -10 26 5 4 -6 5
-22 1 -20 -4 -26 -3 -17 3 23 16 -12 22 -116 20 l-97 -2 105 -3z"/>
<path d="M690 1339 c12 -9 11 -10 -7 -6 -15 3 -31 -5 -54 -29 -18 -19 -29 -34
-24 -34 5 0 -2 -11 -15 -25 -32 -34 -50 -32 -19 2 13 15 -5 2 -39 -27 -73 -62
-78 -70 -81 -127 l-2 -42 40 4 c25 2 39 0 35 -6 -3 -5 -10 -7 -15 -3 -5 3 -8
0 -7 -8 2 -7 -4 -14 -12 -14 -8 -1 -28 -3 -45 -4 l-30 -2 35 -8 c45 -11 88 17
87 57 0 16 -2 22 -4 16 -5 -14 -31 -17 -57 -7 -26 10 -18 36 22 75 66 64 202
179 212 179 20 0 9 16 -12 17 -19 2 -20 0 -8 -8z"/>
<path d="M2012 1133 c-1 -48 -6 -73 -14 -73 -6 0 -9 -1 -7 -3 2 -2 31 0 64 3
59 7 59 7 13 9 l-47 1 -4 68 -3 67 -2 -72z"/>
<path d="M2138 1052 c-15 -6 -13 -9 12 -20 16 -8 38 -11 47 -9 13 3 10 5 -7 6
-20 1 -22 3 -10 12 12 8 10 9 -9 4 -16 -5 -21 -4 -17 4 8 12 8 12 -16 3z"/>
<path d="M2290 1019 c12 -8 8 -9 -15 -5 l-30 5 30 -13 c51 -23 78 -29 71 -17
-4 6 -1 11 6 12 7 0 -3 7 -22 14 -43 17 -60 18 -40 4z"/>
<path d="M352 984 c-7 -8 -18 -12 -23 -8 -5 3 -8 0 -7 -8 2 -7 -2 -12 -8 -11
-7 1 -20 -7 -30 -19 -11 -12 -13 -18 -6 -14 7 5 12 1 12 -10 0 -12 6 -9 22 12
13 16 25 30 29 32 21 10 41 30 33 34 -5 3 -15 0 -22 -8z"/>
<path d="M2365 990 c-8 -13 -9 -12 26 -27 15 -7 38 -9 50 -6 19 4 21 3 9 -6
-10 -7 -11 -11 -3 -11 23 0 113 -62 113 -77 0 -9 6 -13 15 -9 9 3 15 0 15 -9
0 -8 -5 -15 -11 -15 -6 0 -7 -5 -2 -12 4 -7 8 -17 9 -23 1 -5 9 -23 17 -38 13
-25 16 -26 20 -10 3 10 5 -22 6 -72 0 -52 -3 -84 -8 -77 -7 11 -9 11 -14 -2
-7 -16 -80 -66 -98 -66 -6 0 -25 -6 -42 -14 -18 -8 -45 -17 -61 -21 -23 -5
-27 -8 -15 -16 7 -5 21 -8 29 -8 10 0 9 3 -5 10 -16 7 -13 8 13 4 22 -3 31 -1
26 6 -4 8 1 9 17 4 19 -5 21 -4 9 5 -12 9 -9 10 13 5 21 -4 27 -3 21 6 -5 9
-2 10 9 6 16 -6 82 32 105 61 7 10 12 47 12 95 0 79 -12 123 -32 111 -7 -4 -8
1 -3 16 5 16 4 20 -5 15 -9 -5 -10 -2 -6 13 8 25 -9 63 -26 59 -7 -1 -12 3
-13 8 -1 21 -16 34 -32 28 -11 -4 -14 -3 -9 5 7 12 -5 16 -33 13 -7 -2 -10 2
-7 7 3 5 -16 18 -42 28 -26 11 -50 20 -54 22 -3 2 -9 -2 -13 -8z"/>
<path d="M233 710 c0 -41 2 -58 4 -37 2 20 2 54 0 75 -2 20 -4 3 -4 -38z"/>
<path d="M257 583 c-11 -11 -8 -28 9 -49 8 -10 12 -13 8 -5 -5 10 -3 12 5 7 7
-5 10 -14 7 -22 -3 -8 0 -13 7 -11 7 1 11 -6 11 -15 -1 -9 14 -31 34 -50 19
-18 32 -27 28 -20 -4 6 -3 12 3 12 11 0 25 -19 26 -35 0 -5 9 -9 19 -7 12 2
16 -1 10 -10 -4 -7 -4 -10 1 -6 4 4 15 2 23 -5 13 -10 14 -9 10 3 -2 8 -13 20
-24 25 -31 15 -123 106 -138 135 -7 14 -18 24 -24 23 -7 -2 -12 2 -12 7 0 6 5
10 10 10 6 0 10 5 10 10 0 11 -13 13 -23 3z"/>
<path d="M2304 464 c4 -12 1 -14 -13 -9 -11 3 -22 1 -26 -4 -4 -7 1 -8 11 -4
10 4 15 2 11 -4 -4 -6 6 -6 29 1 19 6 28 12 20 14 -9 2 -16 8 -16 13 0 5 -5 9
-11 9 -6 0 -8 -7 -5 -16z"/>
<path d="M1530 460 c0 -6 8 -10 17 -10 9 0 13 -3 10 -6 -10 -11 13 -45 25 -38
7 5 9 2 5 -9 -4 -12 -2 -14 10 -10 12 5 15 2 10 -9 -5 -15 34 -63 51 -63 4 0
6 -3 5 -7 -2 -4 4 -5 12 -2 11 5 13 2 9 -10 -5 -12 -2 -15 10 -10 11 4 16 2
14 -7 -2 -9 4 -13 16 -11 10 2 15 -1 11 -7 -4 -7 0 -8 11 -4 12 4 15 3 10 -5
-5 -8 -2 -10 9 -6 10 4 15 2 13 -7 -2 -9 4 -13 16 -11 10 2 15 -1 12 -7 -5 -8
18 -21 44 -26 38 -6 60 -17 54 -27 -4 -6 -3 -8 4 -4 6 3 13 2 17 -4 7 -12 25
-4 25 12 0 5 -7 8 -15 4 -8 -3 -15 -1 -15 4 0 6 -5 10 -10 10 -14 0 -191 99
-212 119 -68 64 -118 118 -118 127 0 6 -11 16 -25 22 -15 7 -25 8 -25 2z"/>
<path d="M795 423 c-41 -22 -88 -59 -60 -48 11 4 25 8 32 8 7 0 10 4 7 8 -2 4
4 8 13 9 70 4 83 6 83 13 0 5 5 5 11 1 7 -4 10 -1 7 6 -2 8 -10 16 -18 18 -7
3 -10 0 -6 -7 4 -7 0 -11 -13 -11 -10 0 -21 4 -23 9 -1 5 -16 2 -33 -6z"/>
<path d="M1515 414 c-4 -10 -9 -24 -10 -30 -2 -6 -19 -46 -39 -88 -25 -52 -35
-85 -31 -104 3 -15 3 -21 -1 -15 -3 8 -17 -1 -40 -25 -36 -39 -40 -47 -25 -57
24 -14 103 120 103 172 0 13 4 20 9 17 12 -7 33 45 30 76 -2 21 0 22 9 10 9
-12 10 -9 5 13 -3 18 -2 26 4 23 5 -4 13 -1 17 5 4 7 3 9 -4 5 -5 -3 -12 -1
-14 6 -3 7 -8 4 -13 -8z"/>
<path d="M2267 378 c6 -73 11 -83 12 -23 0 28 -3 56 -8 63 -5 8 -6 -8 -4 -40z"/>
<path d="M875 390 c-6 -10 -5 -11 17 -14 6 0 13 -7 16 -15 3 -9 0 -11 -9 -5
-17 9 2 -16 38 -55 13 -13 21 -27 18 -31 -5 -7 34 -47 41 -42 13 8 16 0 4 -9
-12 -8 -12 -10 -1 -7 8 2 30 -11 50 -29 63 -58 48 -36 -31 48 -43 44 -78 86
-78 92 0 14 -43 77 -52 77 -4 0 -10 -4 -13 -10z"/>
<path d="M543 333 c26 -2 68 -2 95 0 26 2 4 3 -48 3 -52 0 -74 -1 -47 -3z"/>
<path d="M2241 202 c0 -7 -5 -10 -11 -7 -9 6 -15 -16 -11 -39 1 -4 -11 -6 -26
-2 -27 5 -27 5 -5 -6 19 -10 26 -8 43 9 12 12 19 28 16 39 -3 11 -5 13 -6 6z"/>
<path d="M1100 140 c-10 -6 -11 -10 -2 -10 22 0 27 -2 40 -12 15 -13 16 4 0
20 -14 14 -19 15 -38 2z"/>
<path d="M2033 133 c26 -2 68 -2 95 0 26 2 4 3 -48 3 -52 0 -74 -1 -47 -3z"/>
<path d="M1238 83 c18 -2 45 -2 60 0 15 2 0 4 -33 4 -33 0 -45 -2 -27 -4z"/>
</g>
</svg>
